<svg style="position: absolute; width: 0; height: 0; overflow: hidden;" version="1.1" xmlns="http://www.w3.org/2000/svg" xmlns:xlink="http://www.w3.org/1999/xlink">
<defs>
<symbol id="icon-twitter-square" viewBox="0 0 24 28">
<title>twitter-square</title>
<path class="path1" d="M20 9.531c-0.594 0.266-1.219 0.438-1.891 0.531 0.688-0.406 1.203-1.062 1.453-1.828-0.641 0.375-1.344 0.656-2.094 0.797-0.594-0.641-1.453-1.031-2.391-1.031-1.813 0-3.281 1.469-3.281 3.281 0 0.25 0.016 0.516 0.078 0.75-2.734-0.141-5.156-1.437-6.781-3.437-0.281 0.484-0.453 1.062-0.453 1.656 0 1.141 0.531 2.141 1.422 2.734-0.547-0.016-1.062-0.172-1.563-0.406v0.031c0 1.594 1.203 2.922 2.703 3.219-0.281 0.078-0.5 0.125-0.797 0.125-0.203 0-0.406-0.031-0.609-0.063 0.422 1.297 1.625 2.25 3.063 2.281-1.125 0.875-2.531 1.406-4.078 1.406-0.266 0-0.531-0.016-0.781-0.047 1.453 0.922 3.172 1.469 5.031 1.469 6.031 0 9.344-5 9.344-9.344 0-0.141 0-0.281-0.016-0.422 0.641-0.453 1.203-1.031 1.641-1.703zM24 6.5v15c0 2.484-2.016 4.5-4.5 4.5h-15c-2.484 0-4.5-2.016-4.5-4.5v-15c0-2.484 2.016-4.5 4.5-4.5h15c2.484 0 4.5 2.016 4.5 4.5z"></path>
</symbol>
<symbol id="icon-facebook-square" viewBox="0 0 24 28">
<title>facebook-square</title>
<path class="path1" d="M19.5 2c2.484 0 4.5 2.016 4.5 4.5v15c0 2.484-2.016 4.5-4.5 4.5h-2.938v-9.297h3.109l0.469-3.625h-3.578v-2.312c0-1.047 0.281-1.75 1.797-1.75l1.906-0.016v-3.234c-0.328-0.047-1.469-0.141-2.781-0.141-2.766 0-4.672 1.687-4.672 4.781v2.672h-3.125v3.625h3.125v9.297h-8.313c-2.484 0-4.5-2.016-4.5-4.5v-15c0-2.484 2.016-4.5 4.5-4.5h15z"></path>
</symbol>
<symbol id="icon-pinterest-square" viewBox="0 0 24 28">
<title>pinterest-square</title>
<path class="path1" d="M19.5 2c2.484 0 4.5 2.016 4.5 4.5v15c0 2.484-2.016 4.5-4.5 4.5h-11.328c0.516-0.734 1.359-2 1.687-3.281 0 0 0.141-0.531 0.828-3.266 0.422 0.797 1.625 1.484 2.906 1.484 3.813 0 6.406-3.484 6.406-8.141 0-3.516-2.984-6.797-7.516-6.797-5.641 0-8.484 4.047-8.484 7.422 0 2.031 0.781 3.844 2.438 4.531 0.266 0.109 0.516 0 0.594-0.297 0.047-0.203 0.172-0.734 0.234-0.953 0.078-0.297 0.047-0.406-0.172-0.656-0.469-0.578-0.781-1.297-0.781-2.344 0-3 2.25-5.672 5.844-5.672 3.187 0 4.937 1.937 4.937 4.547 0 3.422-1.516 6.312-3.766 6.312-1.234 0-2.172-1.031-1.875-2.297 0.359-1.5 1.047-3.125 1.047-4.203 0-0.969-0.516-1.781-1.594-1.781-1.266 0-2.281 1.313-2.281 3.063 0 0 0 1.125 0.375 1.891-1.297 5.5-1.531 6.469-1.531 6.469-0.344 1.437-0.203 3.109-0.109 3.969h-2.859c-2.484 0-4.5-2.016-4.5-4.5v-15c0-2.484 2.016-4.5 4.5-4.5h15z"></path>
</symbol>
<symbol id="icon-rss-square" viewBox="0 0 24 28">
<title>rss-square</title>
<path class="path1" d="M8 20c0-1.109-0.891-2-2-2s-2 0.891-2 2 0.891 2 2 2 2-0.891 2-2zM13.484 21.469c-0.266-4.844-4.109-8.687-8.953-8.953-0.141-0.016-0.281 0.047-0.375 0.141s-0.156 0.219-0.156 0.359v2c0 0.266 0.203 0.484 0.469 0.5 3.203 0.234 5.781 2.812 6.016 6.016 0.016 0.266 0.234 0.469 0.5 0.469h2c0.141 0 0.266-0.063 0.359-0.156s0.156-0.234 0.141-0.375zM19.484 21.484c-0.266-8.125-6.844-14.703-14.969-14.969-0.156-0.016-0.266 0.031-0.359 0.141-0.094 0.094-0.156 0.219-0.156 0.359v2c0 0.266 0.219 0.484 0.484 0.5 6.484 0.234 11.766 5.516 12 12 0.016 0.266 0.234 0.484 0.5 0.484h2c0.141 0 0.266-0.063 0.359-0.156 0.109-0.094 0.156-0.219 0.141-0.359zM24 6.5v15c0 2.484-2.016 4.5-4.5 4.5h-15c-2.484 0-4.5-2.016-4.5-4.5v-15c0-2.484 2.016-4.5 4.5-4.5h15c2.484 0 4.5 2.016 4.5 4.5z"></path>
</symbol>
<symbol id="icon-youtube-square" viewBox="0 0 24 28">
<title>youtube-square</title>
<path class="path1" d="M14.359 20.359v-2.453c0-0.516-0.156-0.781-0.453-0.781-0.172 0-0.344 0.078-0.516 0.25v3.5c0.172 0.172 0.344 0.25 0.516 0.25 0.297 0 0.453-0.25 0.453-0.766zM17.234 18.453h1.031v-0.531c0-0.531-0.172-0.797-0.516-0.797s-0.516 0.266-0.516 0.797v0.531zM8.313 14.297v1.094h-1.25v6.609h-1.156v-6.609h-1.219v-1.094h3.625zM11.453 16.266v5.734h-1.047v-0.625c-0.406 0.469-0.797 0.703-1.188 0.703-0.328 0-0.562-0.141-0.656-0.438-0.063-0.172-0.094-0.438-0.094-0.844v-4.531h1.031v4.219c0 0.234 0 0.375 0.016 0.406 0.016 0.156 0.094 0.234 0.234 0.234 0.219 0 0.422-0.156 0.656-0.484v-4.375h1.047zM15.391 18v2.281c0 0.516-0.031 0.906-0.109 1.141-0.125 0.438-0.406 0.656-0.828 0.656-0.359 0-0.719-0.219-1.062-0.641v0.562h-1.047v-7.703h1.047v2.516c0.328-0.406 0.688-0.625 1.062-0.625 0.422 0 0.703 0.219 0.828 0.656 0.078 0.234 0.109 0.609 0.109 1.156zM19.313 20.016v0.141c0 0.344-0.016 0.562-0.031 0.672-0.031 0.234-0.109 0.438-0.234 0.625-0.281 0.422-0.719 0.625-1.25 0.625-0.547 0-0.969-0.203-1.266-0.594-0.219-0.281-0.328-0.734-0.328-1.344v-2.016c0-0.609 0.094-1.047 0.313-1.344 0.297-0.391 0.719-0.594 1.25-0.594 0.516 0 0.938 0.203 1.219 0.594 0.219 0.297 0.328 0.734 0.328 1.344v1.188h-2.078v1.016c0 0.531 0.172 0.797 0.531 0.797 0.25 0 0.406-0.141 0.469-0.406 0-0.063 0.016-0.297 0.016-0.703h1.062zM12.266 7.141v2.438c0 0.531-0.172 0.797-0.5 0.797-0.344 0-0.5-0.266-0.5-0.797v-2.438c0-0.531 0.156-0.812 0.5-0.812 0.328 0 0.5 0.281 0.5 0.812zM20.594 18.281v0c0-1.344 0-2.766-0.297-4.062-0.219-0.922-0.969-1.594-1.859-1.687-2.125-0.234-4.281-0.234-6.438-0.234-2.141 0-4.297 0-6.422 0.234-0.906 0.094-1.656 0.766-1.859 1.687-0.297 1.297-0.313 2.719-0.313 4.062v0c0 1.328 0 2.75 0.313 4.062 0.203 0.906 0.953 1.578 1.844 1.687 2.141 0.234 4.297 0.234 6.438 0.234s4.297 0 6.438-0.234c0.891-0.109 1.641-0.781 1.844-1.687 0.313-1.313 0.313-2.734 0.313-4.062zM8.797 8.109l1.406-4.625h-1.172l-0.797 3.047-0.828-3.047h-1.219c0.234 0.719 0.5 1.437 0.734 2.156 0.375 1.094 0.609 1.906 0.719 2.469v3.141h1.156v-3.141zM13.312 9.375v-2.031c0-0.609-0.109-1.062-0.328-1.359-0.297-0.391-0.703-0.594-1.219-0.594-0.531 0-0.938 0.203-1.219 0.594-0.219 0.297-0.328 0.75-0.328 1.359v2.031c0 0.609 0.109 1.062 0.328 1.359 0.281 0.391 0.688 0.594 1.219 0.594 0.516 0 0.922-0.203 1.219-0.594 0.219-0.281 0.328-0.75 0.328-1.359zM16.141 11.25h1.047v-5.781h-1.047v4.422c-0.234 0.328-0.453 0.484-0.656 0.484-0.141 0-0.234-0.078-0.25-0.25-0.016-0.031-0.016-0.156-0.016-0.406v-4.25h-1.047v4.578c0 0.406 0.031 0.672 0.094 0.859 0.109 0.281 0.344 0.422 0.672 0.422 0.391 0 0.781-0.234 1.203-0.703v0.625zM24 6.5v15c0 2.484-2.016 4.5-4.5 4.5h-15c-2.484 0-4.5-2.016-4.5-4.5v-15c0-2.484 2.016-4.5 4.5-4.5h15c2.484 0 4.5 2.016 4.5 4.5z"></path>
</symbol>
<symbol id="icon-behance-square" viewBox="0 0 24 28">
<title>behance-square</title>
<path class="path1" d="M19.5 2c2.484 0 4.5 2.016 4.5 4.5v15c0 2.484-2.016 4.5-4.5 4.5h-15c-2.484 0-4.5-2.016-4.5-4.5v-15c0-2.484 2.016-4.5 4.5-4.5h15zM7.797 7.734h-5.797v12.297h5.969c2.234 0 4.328-1.062 4.328-3.563 0-1.547-0.734-2.688-2.234-3.125 1.094-0.531 1.672-1.328 1.672-2.562 0-2.453-1.828-3.047-3.937-3.047zM7.453 12.703h-2.75v-2.875h2.547c0.969 0 1.859 0.266 1.859 1.406 0 1.047-0.688 1.469-1.656 1.469zM7.594 17.938h-2.891v-3.391h2.953c1.188 0 1.937 0.516 1.937 1.766s-0.891 1.625-2 1.625zM17.75 18.438c-1.437 0-2.188-0.844-2.188-2.266h6.422c0.016-0.156 0.016-0.313 0.016-0.469 0-2.625-1.547-4.828-4.344-4.828-2.703 0-4.562 2.047-4.562 4.719 0 2.781 1.75 4.672 4.562 4.672 2.141 0 3.516-0.953 4.172-2.984h-2.156c-0.234 0.75-1.188 1.156-1.922 1.156zM17.594 12.719c1.219 0 1.828 0.734 1.937 1.906h-3.969c0.078-1.172 0.859-1.906 2.031-1.906zM15.062 8.563h4.984v1.203h-4.984v-1.203z"></path>
</symbol>
<symbol id="icon-medium" viewBox="0 0 28 28">
<title>medium</title>
<path class="path1" d="M9.328 6.578v18.328c0 0.484-0.234 0.938-0.766 0.938-0.187 0-0.359-0.047-0.516-0.125l-7.266-3.641c-0.438-0.219-0.781-0.781-0.781-1.25v-17.813c0-0.391 0.187-0.75 0.609-0.75 0.25 0 0.469 0.125 0.688 0.234l7.984 4c0.016 0.016 0.047 0.063 0.047 0.078zM10.328 8.156l8.344 13.531-8.344-4.156v-9.375zM28 8.437v16.469c0 0.516-0.297 0.875-0.812 0.875-0.266 0-0.516-0.078-0.734-0.203l-6.891-3.437zM27.953 6.563c0 0.063-8.078 13.172-8.703 14.172l-6.094-9.906 5.063-8.234c0.172-0.281 0.484-0.438 0.812-0.438 0.141 0 0.281 0.031 0.406 0.094l8.453 4.219c0.031 0.016 0.063 0.047 0.063 0.094z"></path>
</symbol>
<symbol id="icon-reddit-alien" viewBox="0 0 28 28">
<title>reddit-alien</title>
<path class="path1" d="M28 13.219c0 1.219-0.688 2.266-1.703 2.781 0.125 0.484 0.187 0.984 0.187 1.5 0 4.937-5.578 8.937-12.453 8.937-6.859 0-12.437-4-12.437-8.937 0-0.5 0.063-1 0.172-1.469-1.047-0.516-1.766-1.578-1.766-2.812 0-1.719 1.391-3.109 3.109-3.109 0.891 0 1.687 0.375 2.266 0.984 2.109-1.469 4.922-2.422 8.047-2.531l1.813-8.141c0.063-0.281 0.359-0.469 0.641-0.406l5.766 1.266c0.375-0.75 1.172-1.281 2.078-1.281 1.297 0 2.344 1.047 2.344 2.328 0 1.297-1.047 2.344-2.344 2.344-1.281 0-2.328-1.047-2.328-2.328l-5.219-1.156-1.625 7.375c3.141 0.094 5.984 1.031 8.109 2.5 0.562-0.594 1.359-0.953 2.234-0.953 1.719 0 3.109 1.391 3.109 3.109zM6.531 16.328c0 1.297 1.047 2.344 2.328 2.344 1.297 0 2.344-1.047 2.344-2.344 0-1.281-1.047-2.328-2.344-2.328-1.281 0-2.328 1.047-2.328 2.328zM19.187 21.875c0.234-0.234 0.234-0.578 0-0.812-0.219-0.219-0.578-0.219-0.797 0-0.938 0.953-2.953 1.281-4.391 1.281s-3.453-0.328-4.391-1.281c-0.219-0.219-0.578-0.219-0.797 0-0.234 0.219-0.234 0.578 0 0.812 1.484 1.484 4.344 1.594 5.187 1.594s3.703-0.109 5.187-1.594zM19.141 18.672c1.281 0 2.328-1.047 2.328-2.344 0-1.281-1.047-2.328-2.328-2.328-1.297 0-2.344 1.047-2.344 2.328 0 1.297 1.047 2.344 2.344 2.344z"></path>
</symbol>
</defs>
</svg>